<?xml version="1.0" standalone="no"?>
<!DOCTYPE svg PUBLIC "-//W3C//DTD SVG 20010904//EN"
 "http://www.w3.org/TR/2001/REC-SVG-20010904/DTD/svg10.dtd">
<svg version="1.0" xmlns="http://www.w3.org/2000/svg"
 width="844.000000pt" height="844.000000pt" viewBox="0 0 844.000000 844.000000"
 preserveAspectRatio="xMidYMid meet">
<metadata>
Created by potrace 1.11, written by Peter Selinger 2001-2013
</metadata>
<g transform="translate(0.000000,844.000000) scale(0.100000,-0.100000)"
fill="#000000" stroke="none">
<path d="M4147 8434 c-1 -1 -67 -4 -147 -8 -149 -6 -197 -10 -310 -26 -36 -5
-87 -12 -115 -15 -27 -4 -69 -10 -93 -16 -23 -5 -59 -12 -80 -15 -63 -9 -283
-63 -372 -91 -47 -15 -89 -27 -95 -29 -27 -6 -125 -42 -265 -97 -191 -74 -491
-225 -667 -335 -117 -73 -343 -231 -383 -268 -8 -8 -35 -30 -60 -50 -25 -20
-70 -57 -100 -83 -77 -64 -365 -354 -425 -426 -28 -33 -54 -65 -60 -71 -13
-14 -53 -65 -109 -139 -25 -33 -49 -64 -54 -70 -4 -5 -37 -53 -73 -105 -151
-220 -320 -535 -422 -785 -83 -202 -189 -544 -213 -685 -3 -14 -11 -59 -19
-100 -20 -99 -44 -259 -51 -340 -3 -36 -8 -76 -11 -90 -9 -47 -12 -605 -3
-695 5 -49 12 -118 15 -152 3 -34 8 -72 10 -85 2 -13 11 -68 19 -123 9 -55 18
-111 21 -125 4 -21 26 -122 30 -140 1 -3 5 -21 9 -40 77 -336 250 -771 436
-1097 57 -98 239 -381 264 -410 17 -19 29 -35 61 -78 17 -22 32 -42 35 -45 3
-3 25 -30 50 -60 51 -63 43 -54 135 -155 138 -153 301 -307 454 -431 13 -10
28 -23 35 -29 73 -64 330 -243 471 -327 226 -135 477 -254 730 -346 108 -39
296 -100 332 -106 10 -2 47 -12 83 -21 36 -9 76 -19 90 -21 14 -3 68 -13 120
-24 120 -23 161 -30 290 -45 36 -4 79 -9 95 -11 64 -8 296 -18 425 -18 138 0
408 12 419 18 3 2 38 6 76 10 39 4 81 8 95 11 14 2 41 6 60 9 19 3 62 10 95
16 33 6 74 13 90 16 85 15 337 82 465 124 315 104 589 229 870 398 73 44 320
209 330 221 3 3 39 31 80 63 41 31 85 65 96 75 12 10 48 40 80 68 131 110 412
403 519 539 17 21 35 44 41 50 5 6 29 36 51 67 386 524 634 1075 759 1684 1 6
5 28 8 50 4 22 8 47 11 55 2 8 6 37 10 64 3 27 8 52 9 55 2 3 7 38 11 76 4 39
8 84 11 100 24 182 23 823 -1 899 -2 6 -7 38 -10 71 -7 68 -15 131 -29 205 -3
19 -8 46 -10 60 -25 148 -117 489 -161 600 -7 19 -28 73 -45 120 -76 204 -203
463 -338 684 -50 83 -169 264 -182 276 -3 3 -32 41 -65 85 -33 44 -62 82 -65
85 -3 3 -28 32 -55 65 -89 107 -108 127 -250 269 -140 140 -232 224 -334 304
-18 15 -48 39 -65 54 -17 15 -34 28 -38 28 -4 0 -13 6 -20 13 -40 38 -250 179
-403 269 -95 56 -326 173 -435 221 -168 74 -426 164 -605 212 -102 27 -117 31
-170 41 -16 2 -46 9 -65 14 -19 5 -78 15 -130 24 -149 24 -155 24 -315 41 -98
10 -470 25 -478 19z m373 -1108 c19 -3 53 -7 75 -10 22 -3 60 -8 85 -11 25 -3
79 -13 120 -21 438 -88 786 -229 1140 -462 63 -42 117 -78 120 -81 3 -4 32
-26 65 -51 33 -25 62 -47 65 -50 3 -3 34 -30 70 -60 85 -71 248 -235 330 -331
408 -477 654 -1039 735 -1681 23 -180 23 -550 0 -702 -2 -12 -6 -42 -9 -67
-15 -109 -31 -191 -61 -309 -8 -36 -18 -73 -20 -83 -7 -31 -55 -191 -64 -212
-4 -11 -27 -69 -51 -130 -44 -113 -133 -299 -189 -393 -17 -29 -31 -55 -31
-58 0 -3 -4 -10 -10 -17 -5 -7 -39 -56 -74 -110 -107 -162 -224 -304 -376
-457 -160 -160 -179 -177 -301 -272 -245 -191 -542 -356 -829 -463 -62 -23
-75 -28 -85 -31 -5 -1 -41 -12 -80 -24 -85 -27 -280 -76 -329 -84 -20 -3 -73
-12 -118 -20 -46 -8 -119 -18 -163 -21 -44 -4 -98 -9 -120 -11 -49 -4 -334 -4
-395 0 -47 4 -157 15 -200 21 -101 14 -126 18 -130 20 -3 2 -26 6 -50 10 -70
10 -302 72 -415 109 -268 90 -519 216 -765 384 -80 54 -203 148 -247 187 -6 5
-37 33 -68 60 -276 241 -529 572 -704 919 -31 61 -64 129 -73 151 -9 22 -26
62 -37 88 -90 212 -173 536 -207 807 -20 163 -25 482 -10 626 12 121 24 197
51 344 12 67 67 276 95 360 97 296 265 624 439 860 23 30 48 65 58 78 9 12 26
33 37 46 12 13 37 43 56 67 37 46 271 284 330 334 424 367 981 630 1520 719
156 25 161 26 255 32 50 4 92 8 94 10 5 5 430 -4 471 -10z"/>
<path d="M5165 6119 c-220 -110 -408 -204 -418 -210 -10 -5 -435 -218 -946
-474 l-928 -464 0 -1425 c0 -785 2 -1426 4 -1426 2 0 609 303 1351 674 l1347
674 0 1420 c0 781 -2 1423 -5 1425 -3 3 -185 -85 -405 -194z m-905 -1831 c393
-197 723 -367 733 -379 9 -12 17 -34 17 -49 0 -15 -8 -37 -17 -49 -22 -25
-1433 -731 -1478 -738 -24 -4 -38 1 -59 19 l-28 24 0 719 c0 396 1 730 1 741
1 12 11 33 22 48 17 22 28 27 58 24 23 -2 287 -128 751 -360z"/>
</g>
</svg>
